<svg version="1.0" xmlns="http://www.w3.org/2000/svg" width="582" height="456" viewBox="0 0 5820 4560"><path d="M2180 2500V740H740v1290h960v470H740v-440H260V730h480V270h1920v3100h960v450h-960v440h-480V2500zM4240 3330v-100h200v200h-200v-100z"/><path d="M1292 3353l3-28h330l3 28 3 27h-342l3-27zM540 3331c-16-31 4-63 37-59 55 7 55 69 0 76-18 2-29-3-37-17zM5340 3331c-16-31 4-63 37-59 34 4 52 32 37 56-16 26-60 28-74 3zM3140 2880c0-13 7-20 20-20s20 7 20 20-7 20-20 20-20-7-20-20zM3220 2880c0-13 7-20 20-20s20 7 20 20-7 20-20 20-20-7-20-20zM3300 2880c0-13 7-20 20-20s20 7 20 20-7 20-20 20-20-7-20-20zM3380 2880c0-13 7-20 20-20s20 7 20 20-7 20-20 20-20-7-20-20zM3460 2880c0-13 7-20 20-20s20 7 20 20-7 20-20 20-20-7-20-20zM3540 2880c0-13 7-20 20-20s20 7 20 20-7 20-20 20-20-7-20-20zM3180 2805c0-18 5-25 20-25s20 7 20 25-5 25-20 25-20-7-20-25zM3260 2805c0-18 5-25 20-25s20 7 20 25-5 25-20 25-20-7-20-25zM3340 2805c0-18 5-25 20-25s20 7 20 25-5 25-20 25-20-7-20-25zM3420 2805c0-18 5-25 20-25s20 7 20 25-5 25-20 25-20-7-20-25zM3500 2805c0-18 5-25 20-25s20 7 20 25-5 25-20 25-20-7-20-25zM3580 2805c0-18 5-25 20-25s20 7 20 25-5 25-20 25-20-7-20-25zM3140 2730c0-13 7-20 20-20s20 7 20 20-7 20-20 20-20-7-20-20zM3220 2730c0-13 7-20 20-20s20 7 20 20-7 20-20 20-20-7-20-20zM3300 2730c0-13 7-20 20-20s20 7 20 20-7 20-20 20-20-7-20-20zM3380 2730c0-13 7-20 20-20s20 7 20 20-7 20-20 20-20-7-20-20zM3460 2730c0-13 7-20 20-20s20 7 20 20-7 20-20 20-20-7-20-20zM3540 2730c0-13 7-20 20-20s20 7 20 20-7 20-20 20-20-7-20-20zM3180 2650c0-13 7-20 20-20s20 7 20 20-7 20-20 20-20-7-20-20zM3260 2650c0-13 7-20 20-20s20 7 20 20-7 20-20 20-20-7-20-20zM3340 2650c0-13 7-20 20-20s20 7 20 20-7 20-20 20-20-7-20-20zM3420 2650c0-13 7-20 20-20s20 7 20 20-7 20-20 20-20-7-20-20zM3500 2650c0-13 7-20 20-20s20 7 20 20-7 20-20 20-20-7-20-20zM3580 2650c0-13 7-20 20-20s20 7 20 20-7 20-20 20-20-7-20-20zM3140 2580c0-13 7-20 20-20s20 7 20 20-7 20-20 20-20-7-20-20zM3220 2580c0-13 7-20 20-20s20 7 20 20-7 20-20 20-20-7-20-20zM3300 2580c0-13 7-20 20-20s20 7 20 20-7 20-20 20-20-7-20-20zM3380 2580c0-13 7-20 20-20s20 7 20 20-7 20-20 20-20-7-20-20zM3460 2580c0-13 7-20 20-20s20 7 20 20-7 20-20 20-20-7-20-20zM3540 2580c0-13 7-20 20-20s20 7 20 20-7 20-20 20-20-7-20-20zM3180 2500c0-13 7-20 20-20s20 7 20 20-7 20-20 20-20-7-20-20zM3260 2500c0-13 7-20 20-20s20 7 20 20-7 20-20 20-20-7-20-20zM3340 2500c0-13 7-20 20-20s20 7 20 20-7 20-20 20-20-7-20-20zM3420 2500c0-13 7-20 20-20s20 7 20 20-7 20-20 20-20-7-20-20zM3500 2500c0-13 7-20 20-20s20 7 20 20-7 20-20 20-20-7-20-20zM3580 2500c0-13 7-20 20-20s20 7 20 20-7 20-20 20-20-7-20-20zM4100 2265v-235h960V740H3620v1326l-222-2c-123-1-231-2-240-3-17-1-18-51-18-896V270h1920v460h480v1330h-480v440h-960v-235zM3140 2430c0-13 7-20 20-20s20 7 20 20-7 20-20 20-20-7-20-20zM3220 2430c0-13 7-20 20-20s20 7 20 20-7 20-20 20-20-7-20-20zM3300 2430c0-13 7-20 20-20s20 7 20 20-7 20-20 20-20-7-20-20zM3380 2430c0-13 7-20 20-20s20 7 20 20-7 20-20 20-20-7-20-20zM3460 2430c0-13 7-20 20-20s20 7 20 20-7 20-20 20-20-7-20-20zM3540 2430c0-13 7-20 20-20s20 7 20 20-7 20-20 20-20-7-20-20zM3180 2350c0-13 7-20 20-20s20 7 20 20-7 20-20 20-20-7-20-20zM3260 2350c0-13 7-20 20-20s20 7 20 20-7 20-20 20-20-7-20-20zM3340 2350c0-13 7-20 20-20s20 7 20 20-7 20-20 20-20-7-20-20zM3420 2350c0-13 7-20 20-20s20 7 20 20-7 20-20 20-20-7-20-20zM3500 2350c0-13 7-20 20-20s20 7 20 20-7 20-20 20-20-7-20-20zM3580 2350c0-13 7-20 20-20s20 7 20 20-7 20-20 20-20-7-20-20zM3140 2275c0-18 5-25 20-25s20 7 20 25-5 25-20 25-20-7-20-25zM3220 2275c0-18 5-25 20-25s20 7 20 25-5 25-20 25-20-7-20-25zM3300 2275c0-18 5-25 20-25s20 7 20 25-5 25-20 25-20-7-20-25zM3380 2275c0-18 5-25 20-25s20 7 20 25-5 25-20 25-20-7-20-25zM3460 2275c0-18 5-25 20-25s20 7 20 25-5 25-20 25-20-7-20-25z"/><path d="M3540 2275c0-18 5-25 20-25s20 7 20 25-5 25-20 25-20-7-20-25zM3180 2200c0-13 7-20 20-20s20 7 20 20-7 20-20 20-20-7-20-20zM3260 2200c0-13 7-20 20-20s20 7 20 20-7 20-20 20-20-7-20-20zM3340 2200c0-13 7-20 20-20s20 7 20 20-7 20-20 20-20-7-20-20zM3420 2200c0-13 7-20 20-20s20 7 20 20-7 20-20 20-20-7-20-20zM3500 2200c0-13 7-20 20-20s20 7 20 20-7 20-20 20-20-7-20-20zM3580 2200c0-13 7-20 20-20s20 7 20 20-7 20-20 20-20-7-20-20zM3140 2125c0-18 5-25 20-25s20 7 20 25-5 25-20 25-20-7-20-25zM3220 2125c0-18 5-25 20-25s20 7 20 25-5 25-20 25-20-7-20-25zM3300 2125c0-18 5-25 20-25s20 7 20 25-5 25-20 25-20-7-20-25zM3380 2125c0-18 5-25 20-25s20 7 20 25-5 25-20 25-20-7-20-25zM3460 2125c0-18 5-25 20-25s20 7 20 25-5 25-20 25-20-7-20-25zM3540 2125c0-18 5-25 20-25s20 7 20 25-5 25-20 25-20-7-20-25z"/></svg>